<svg width="29" height="29" viewBox="0 0 29 29" fill="none" xmlns="http://www.w3.org/2000/svg">
<rect width="28.9955" height="28.9923" rx="8" fill="#10BC5D"/>
<path d="M8.4 20.5923C7.65 19.8423 7.0625 18.9756 6.6375 17.9923C6.2125 17.009 6 15.9923 6 14.9423C6 13.8923 6.2 12.8548 6.6 11.8298C7 10.8048 7.65 9.84231 8.55 8.94231C9.13333 8.35897 9.85417 7.85897 10.7125 7.44231C11.5708 7.02564 12.5875 6.69647 13.7625 6.45481C14.9375 6.21314 16.2792 6.06731 17.7875 6.01731C19.2958 5.96731 20.9833 6.02564 22.85 6.19231C22.9833 7.95897 23.025 9.58397 22.975 11.0673C22.925 12.5506 22.7875 13.8881 22.5625 15.0798C22.3375 16.2715 22.0208 17.3131 21.6125 18.2048C21.2042 19.0965 20.7 19.8423 20.1 20.4423C19.2167 21.3256 18.2792 21.9715 17.2875 22.3798C16.2958 22.7881 15.2833 22.9923 14.25 22.9923C13.1667 22.9923 12.1083 22.7798 11.075 22.3548C10.0417 21.9298 9.15 21.3423 8.4 20.5923ZM11.2 20.1923C11.6833 20.4756 12.1792 20.6798 12.6875 20.8048C13.1958 20.9298 13.7167 20.9923 14.25 20.9923C15.0167 20.9923 15.775 20.8381 16.525 20.5298C17.275 20.2215 17.9917 19.7256 18.675 19.0423C18.975 18.7423 19.2792 18.3215 19.5875 17.7798C19.8958 17.2381 20.1625 16.5298 20.3875 15.6548C20.6125 14.7798 20.7833 13.7215 20.9 12.4798C21.0167 11.2381 21.0333 9.75897 20.95 8.04231C20.1333 8.00897 19.2125 7.99647 18.1875 8.00481C17.1625 8.01314 16.1417 8.09231 15.125 8.24231C14.1083 8.39231 13.1417 8.63397 12.225 8.96731C11.3083 9.30064 10.5583 9.75897 9.975 10.3423C9.225 11.0923 8.70833 11.834 8.425 12.5673C8.14167 13.3006 8 14.009 8 14.6923C8 15.6756 8.1875 16.5381 8.5625 17.2798C8.9375 18.0215 9.26667 18.5423 9.55 18.8423C10.25 17.509 11.175 16.2298 12.325 15.0048C13.475 13.7798 14.8167 12.7756 16.35 11.9923C15.15 13.0423 14.1042 14.2298 13.2125 15.5548C12.3208 16.8798 11.65 18.4256 11.2 20.1923Z" fill="white"/>
</svg>
